HIERARCHY
ROOT Hips
{
	OFFSET -3.958830 18.904000 13.208200
	CHANNELS 6 Xposition Yposition Zposition Zrotation Yrotation Xrotation 
	JOINT LHipJoint
	{
		OFFSET 0.000000 0.000000 0.000000
		CHANNELS 3 Zrotation Yrotation Xrotation
		JOINT LeftUpLeg
		{
			OFFSET 1.800000 -1.400000 0.085000
			CHANNELS 3 Zrotation Yrotation Xrotation
			JOINT LeftLeg
			{
				OFFSET 2.215000 -6.000000 0.000000
				CHANNELS 3 Zrotation Yrotation Xrotation
				JOINT LeftFoot
				{
					OFFSET 2.500000 -6.900000 0.000000
					CHANNELS 3 Zrotation Yrotation Xrotation
					JOINT LeftToeBase
					{
						OFFSET 0.200000 -0.500000 1.950000
						CHANNELS 3 Zrotation Yrotation Xrotation
						End Site
						{
							OFFSET 0.000000 0.000000 0.000000
						}
					}
				}
			}
		}
	}
	JOINT RHipJoint
	{
		OFFSET 0.000000 0.000000 0.000000
		CHANNELS 3 Zrotation Yrotation Xrotation
		JOINT RightUpLeg
		{
			OFFSET -1.800000 -1.400000 0.085000
			CHANNELS 3 Zrotation Yrotation Xrotation
			JOINT RightLeg
			{
				OFFSET -2.215000 -6.000000 0.000000
				CHANNELS 3 Zrotation Yrotation Xrotation
				JOINT RightFoot
				{
					OFFSET -2.500000 -6.900000 0.000000
					CHANNELS 3 Zrotation Yrotation Xrotation
					JOINT RightToeBase
					{
						OFFSET -0.200000 -0.500000 1.950000
						CHANNELS 3 Zrotation Yrotation Xrotation
						End Site
						{
							OFFSET 0.000000 0.000000 0.000000
						}
					}
				}
			}
		}
	}
	JOINT LowerBack
	{
		OFFSET 0.000000 0.000000 0.000000
		CHANNELS 3 Zrotation Yrotation Xrotation
		JOINT Spine
		{
			OFFSET -0.087000 1.940000 -0.288900
			CHANNELS 3 Zrotation Yrotation Xrotation
			JOINT Spine1
			{
				OFFSET 0.000000 1.950000 0.060000
				CHANNELS 3 Zrotation Yrotation Xrotation
				JOINT Neck
				{
					OFFSET 0.000000 0.000000 0.000000
					CHANNELS 3 Zrotation Yrotation Xrotation
					JOINT Neck1
					{
						OFFSET 0.000000 1.600000 0.340000
						CHANNELS 3 Zrotation Yrotation Xrotation
						JOINT Head
						{
							OFFSET 0.000000 1.667000 -0.240000
							CHANNELS 3 Zrotation Yrotation Xrotation
							End Site
							{
								OFFSET 0.000000 0.000000 0.000000
							}
						}
					}
				}
				JOINT LeftShoulder
				{
					OFFSET 0.000000 0.000000 0.000000
					CHANNELS 3 Zrotation Yrotation Xrotation
					JOINT LeftArm
					{
						OFFSET 2.700000 1.550000 -0.730000
						CHANNELS 3 Zrotation Yrotation Xrotation
						JOINT LeftForeArm
						{
							OFFSET 5.450000 0.000000 0.000000
							CHANNELS 3 Zrotation Yrotation Xrotation
							JOINT LeftHand
							{
								OFFSET 3.450000 0.000000 0.000000
								CHANNELS 3 Zrotation Yrotation Xrotation
								JOINT LeftHandIndex1
								{
									OFFSET 0.750000 0.000000 0.000000
									CHANNELS 3 Zrotation Yrotation Xrotation
									End Site
									{
										OFFSET 0.000000 0.000000 0.000000
									}
								}
							}
						}
					}
				}
				JOINT RightShoulder
				{
					OFFSET 0.000000 0.000000 0.000000
					CHANNELS 3 Zrotation Yrotation Xrotation
					JOINT RightArm
					{
						OFFSET -2.700000 1.550000 -0.730000
						CHANNELS 3 Zrotation Yrotation Xrotation
						JOINT RightForeArm
						{
							OFFSET -5.450000 0.000000 0.000000
							CHANNELS 3 Zrotation Yrotation Xrotation
							JOINT RightHand
							{
								OFFSET -3.450000 0.000000 0.000000
								CHANNELS 3 Zrotation Yrotation Xrotation
								JOINT RightHandIndex1
								{
									OFFSET -0.750000 0.000000 0.000000
									CHANNELS 3 Zrotation Yrotation Xrotation
									End Site
									{
										OFFSET 0.000000 0.000000 0.000000
									}
								}
							}
						}
					}
				}
			}
		}
	}
}
MOTION
Frames: 13
Frame Time: 0.016667
-3.145420 16.791870 -0.404020 -10.430089 0.912686 -15.498093 -15.454444 13.753595 2.282996 33.363888 -0.505526 -10.114175 7.270626 6.969103 28.279302 -0.404606 6.849694 2.095182 0.374300 -0.104080 0.538490 17.945982 -10.738237 2.702678 -7.747455 2.168146 -6.921909 19.022341 -14.988474 33.764614 -1.140595 -7.153712 2.087534 -0.030490 0.211880 0.160200 -2.677993 -1.936085 -7.532924 -24.175817 5.603203 12.040586 -5.073615 9.474550 18.917393 -1.689765 6.221926 -20.753609 10.312824 -0.148521 49.382483 5.217220 5.351110 -11.517090 3.234796 -36.906974 9.091453 -7.129058 -13.627717 -8.742114 14.670835 -36.999677 -4.700890 -3.397688 2.629241 0.923440 0.045140 0.087420 0.079930 0.027988 35.609157 16.671648 52.495220 19.478199 -7.553463 18.443292 45.968286 0.849032 1.741755 -1.211034 -0.397220 0.366400 0.024350 -0.410960 
-3.179040 16.876060 -0.370950 -10.159913 0.140974 -14.845141 -15.399883 13.715328 2.300852 33.221057 -0.265133 -9.146451 6.581022 7.031037 26.394224 -0.376560 6.671523 2.162820 0.322140 -0.160710 0.502800 17.973987 -10.872559 2.706803 -7.278528 1.974806 -6.557203 18.042516 -14.128282 32.384625 -1.060190 -6.843290 2.200461 -0.089420 0.198690 0.166810 -2.774456 -1.682297 -7.561951 -23.236149 4.949361 10.908604 -7.981473 9.412166 18.078421 -0.834321 6.144473 -21.498393 10.137496 0.242339 51.147744 4.705690 5.812540 -9.844900 3.555066 -36.144986 9.558336 -7.860348 -12.635126 -8.263143 14.048310 -36.872647 -4.325929 -3.396256 2.641659 0.918670 0.043150 0.089180 0.061630 -2.103966 34.849846 16.971860 53.059088 18.768304 -7.468883 21.085939 48.012947 1.860051 1.766457 -1.231347 -0.379360 0.324150 0.043410 -0.406480 
-3.226820 16.996970 -0.325720 -9.363180 -1.135217 -14.016989 -15.361382 13.735572 2.323341 32.626124 0.068451 -7.447725 5.411132 7.084394 23.455498 -0.354332 6.486186 2.267245 0.255760 -0.251690 0.441440 17.981880 -10.962925 2.680087 -7.211258 1.661008 -5.848277 16.934845 -12.975127 30.046252 -0.932791 -6.442522 2.351299 -0.151520 0.235070 0.182760 -2.810778 -1.641412 -7.542917 -22.720477 3.922679 8.742492 -11.220269 9.202941 17.601999 0.256192 5.644475 -22.235960 9.100860 1.533632 51.977895 4.761580 6.210400 -6.784850 3.705130 -34.836295 10.185558 -9.219704 -10.277428 -8.075518 13.035194 -38.266671 -4.065526 -3.396094 2.696016 0.900610 0.070390 0.054990 0.057890 -4.520142 34.166362 17.248530 50.985466 18.134448 -7.114347 23.720940 51.090716 3.505036 1.743688 -1.280540 -0.380230 0.287380 0.077120 -0.394870 
-3.269820 17.116400 -0.300630 -8.678657 -3.020071 -14.668311 -15.332888 13.760091 2.370213 32.435752 0.498538 -4.342401 4.198189 7.231858 20.740558 -0.267674 6.415022 2.338612 0.279240 -0.208420 0.446990 17.986517 -11.025816 2.640286 -7.320950 1.126309 -3.673068 15.725552 -11.863851 27.455684 -0.876770 -6.091822 2.498436 -0.151420 0.204590 0.169600 -2.821675 -1.656371 -7.524171 -22.191355 2.850490 7.708990 -13.438925 9.268824 18.744121 1.340585 4.948408 -23.048787 7.974254 3.038274 52.199215 4.733010 7.153390 -6.530450 3.662354 -34.189851 10.986314 -10.675181 -6.940246 -9.064639 13.802174 -40.641630 -4.800578 -3.315220 2.792756 0.888600 0.049000 0.073600 0.073400 -6.652791 34.745967 17.874155 44.312665 16.802419 -8.191970 24.433578 55.605398 4.885322 1.652113 -1.350688 -0.349860 0.266850 0.040460 -0.381890 
-3.294980 17.216540 -0.291900 -8.236533 -4.775382 -16.291672 -15.349188 13.769304 2.446889 32.512036 0.925378 -0.868105 3.080566 7.392601 18.316971 -0.118419 6.484815 2.380801 0.339330 -0.110260 0.478950 17.970037 -10.981721 2.606027 -7.924687 0.352501 -0.300567 15.270986 -11.135269 24.306811 -0.906373 -5.910894 2.583694 -0.134850 0.185270 0.203730 -2.754228 -1.819753 -7.503646 -21.810056 1.990424 7.826085 -14.193666 9.626788 21.316156 2.527627 4.557593 -23.684988 7.520594 4.289005 51.467836 3.889890 8.337570 -7.867000 2.097466 -33.710431 11.235404 -10.688632 -4.612489 -9.987175 14.347810 -41.123761 -5.356047 -3.284792 2.894472 0.863250 0.038170 0.135180 0.117740 -7.417004 35.492488 18.667256 33.441770 12.728466 -10.565373 25.185753 60.597816 6.689870 1.512741 -1.507040 -0.283100 0.258000 -0.020600 -0.340700 
-3.314800 17.297540 -0.284590 -7.707092 -6.292325 -18.014253 -15.469919 13.876171 2.561772 32.667666 1.320526 2.282691 2.112698 7.588018 16.142768 -0.032107 6.704002 2.366246 0.394770 -0.046180 0.515930 17.889842 -10.702928 2.521035 -8.364134 -0.370400 3.085682 14.512200 -10.452123 21.560803 -0.925198 -5.782081 2.636786 -0.096590 0.183920 0.208700 -2.467893 -2.574916 -7.436402 -21.287989 0.819278 8.106361 -14.404785 9.710372 24.640586 4.319455 2.457289 -23.726048 2.903903 7.191900 49.882690 3.378890 9.089570 -10.048600 1.348520 -32.004970 11.198351 -12.578120 -4.339459 -10.280674 15.863893 -39.440962 -6.354573 -3.293506 2.934067 0.871840 0.022040 0.156430 0.138710 -9.719880 36.047301 18.770344 22.013441 7.841174 -13.035680 24.147952 64.679234 7.851806 1.298999 -1.765634 -0.274130 0.287650 -0.046080 -0.331410 
-3.332910 17.365160 -0.291290 -6.786955 -7.197893 -18.952435 -15.586566 14.056662 2.652478 32.116192 1.613802 3.735032 1.076393 7.738011 14.966242 0.060645 6.761541 2.369908 0.472190 0.049790 0.517050 17.790334 -10.468174 2.440894 -9.228539 -0.804901 4.768727 13.840483 -9.927794 19.792591 -0.920799 -5.686289 2.673901 -0.046070 0.150250 0.207710 -2.163740 -3.351845 -7.421967 -21.278731 -0.291305 8.958407 -14.330119 9.028833 26.379089 5.998480 -0.199078 -24.103630 -3.194897 9.746271 47.906406 3.814370 8.648080 -10.049460 0.098827 -29.966187 10.979895 -14.737621 -4.478630 -10.058482 15.149138 -37.880317 -6.324498 -3.229476 3.062737 0.844230 -0.008390 0.167390 0.188050 -11.190157 36.270195 18.622239 12.688661 1.081131 -15.683092 18.467820 68.340007 6.134688 1.083947 -2.229214 -0.230630 0.253030 -0.106980 -0.301710 
-3.349510 17.412750 -0.281730 -6.207501 -7.433540 -17.978063 -15.500309 14.058639 2.751854 31.153916 1.466946 3.257264 0.015302 7.722776 14.363579 0.021891 6.657929 2.397474 0.431670 -0.049030 0.519440 17.806110 -10.661862 2.501780 -9.417846 -0.931393 3.799061 12.940093 -9.489686 19.058675 -0.858982 -5.446575 2.742419 -0.103640 0.140630 0.199520 -2.281481 -3.117179 -7.630023 -19.127709 -1.532212 10.085952 -16.182566 7.207701 23.752899 7.454732 -1.574865 -25.067255 -6.970429 10.767498 49.636507 4.141870 7.912810 -8.482120 -2.335411 -27.978070 10.774388 -16.378715 -3.773179 -8.725202 12.725078 -35.994760 -5.213935 -3.228793 3.030183 0.896090 -0.037040 0.156220 0.153970 -11.209834 35.199764 18.178748 6.687421 -4.290709 -16.031740 13.285463 69.969437 4.456230 1.017592 -2.475632 -0.256060 0.241860 -0.071370 -0.328750 
-3.352230 17.453830 -0.267300 -6.144562 -8.158574 -16.328742 -15.359502 14.031943 2.856798 30.353801 1.130799 2.344242 -0.935791 7.676807 13.947880 -0.112446 6.628017 2.377747 0.357550 -0.214680 0.476570 17.878718 -10.873577 2.554318 -8.937285 -0.920293 1.837428 11.740759 -9.028461 19.029087 -0.741434 -5.192942 2.788558 -0.148080 0.181840 0.201740 -2.540889 -2.869736 -7.818303 -14.666439 -3.086238 10.672221 -19.410700 5.193440 20.201838 8.885806 -3.122580 -25.150369 -11.193613 12.263848 50.215060 5.810120 6.535410 -5.529670 -4.049976 -25.560167 10.618311 -19.017368 -3.099273 -7.267086 12.148553 -34.148900 -4.885342 -3.306837 2.992486 0.952450 -0.031180 0.084630 0.104290 -12.056689 33.491940 16.744839 0.949126 -7.400920 -15.027391 7.284107 69.563411 2.387885 1.009469 -2.623876 -0.333260 0.227570 0.024600 -0.373980 
-3.348410 17.481560 -0.251090 -6.052166 -8.622175 -14.281305 -15.215444 14.025426 2.931421 29.448367 0.745081 0.851626 -1.812015 7.608482 13.795829 -0.198614 6.520649 2.401301 0.302410 -0.320540 0.451200 17.965610 -11.024784 2.604158 -8.475865 -0.854668 -0.468053 11.088770 -8.676999 18.869037 -0.651365 -4.923947 2.852139 -0.189530 0.224970 0.209030 -2.834400 -2.729864 -7.969560 -10.154471 -4.321951 10.888460 -22.429263 3.266134 16.382745 10.036610 -3.761529 -24.659011 -13.238121 12.856342 50.809679 6.898940 5.508500 -3.501480 -5.258001 -23.344876 10.472413 -21.660811 -2.990426 -5.722274 11.284744 -31.805062 -4.330346 -3.375657 2.934571 0.976020 -0.021430 0.049010 0.082110 -13.319361 31.288331 14.896093 -4.159598 -8.663694 -13.011549 2.652315 67.687954 1.392199 1.101817 -2.664358 -0.373440 0.229580 0.077150 -0.384500 
-3.327420 17.508010 -0.265630 -5.775538 -9.094753 -13.530319 -15.076515 14.045945 2.963556 28.613635 0.513060 0.258857 -2.625505 7.663064 14.023526 -0.254390 6.492998 2.416010 0.290490 -0.357070 0.454060 18.070435 -11.120804 2.595983 -8.560923 -0.839399 -2.001555 10.721479 -8.660879 19.611122 -0.615568 -4.825594 2.869468 -0.193630 0.243650 0.195200 -3.164056 -2.756051 -7.992143 -5.900166 -5.714141 12.269937 -25.402629 1.768719 14.555003 11.099057 -4.555465 -23.864586 -15.434734 13.551975 50.230430 7.111060 5.081650 -3.414580 -5.302839 -21.417435 10.214340 -23.477484 -3.580011 -4.666426 10.502221 -29.454542 -3.947634 -3.401547 2.880970 1.001320 -0.027940 0.034470 0.080010 -15.657894 29.385944 13.087497 -8.766413 -9.697037 -12.043279 -2.533150 63.870026 -0.183607 1.174432 -2.734675 -0.408850 0.257310 0.092190 -0.395140 
-3.298840 17.527730 -0.285180 -6.603537 -9.587793 -12.860876 -14.844499 13.826558 3.031859 29.039568 0.211903 -0.115020 -4.416565 8.121845 14.349611 -0.204018 6.609546 2.351690 0.341890 -0.287260 0.466490 18.328170 -11.152914 2.577903 -7.363992 -0.837832 -3.343304 10.585129 -8.802955 20.910777 -0.635469 -4.817945 2.855149 -0.168510 0.208650 0.197840 -3.873593 -2.567783 -7.918681 0.854809 -7.945160 13.673070 -29.962163 -0.056002 14.053243 11.989754 -5.212536 -22.978363 -17.101920 13.842157 48.760514 7.526610 4.477430 -3.983920 -4.466958 -19.477523 9.866819 -24.745934 -4.079053 -3.970698 8.584676 -27.969246 -3.351090 -3.358538 2.930094 0.976470 -0.053370 0.051030 0.100780 -19.011237 26.998088 11.561829 -11.165526 -10.365492 -11.952254 -7.209747 59.883262 -1.563829 1.256140 -2.900116 -0.363960 0.227030 0.050330 -0.374500 
-3.260010 17.532010 -0.323000 -7.108374 -10.111510 -13.465549 -14.692664 13.567909 3.030212 29.758418 0.011600 0.558482 -5.735223 8.628171 15.089344 -0.177447 6.865817 2.265974 0.400900 -0.224100 0.496640 18.522803 -11.247127 2.503482 -6.766421 -1.081464 -3.449321 9.693184 -8.815488 22.019639 -0.673082 -4.886401 2.817760 -0.117970 0.186930 0.187750 -4.381184 -2.202103 -7.705373 5.446399 -10.260509 15.747260 -32.841660 -1.674929 15.535255 12.847605 -5.935280 -21.789507 -18.368867 13.631518 46.472891 6.866230 3.910450 -5.759590 -4.149527 -17.707527 9.215236 -25.431205 -4.797597 -4.101233 7.456902 -27.595470 -3.242174 -3.313765 2.971978 0.975220 -0.075290 0.056110 0.126910 -21.477449 24.957898 10.658964 -13.422512 -11.641278 -12.261891 -14.927698 54.091928 -3.684799 1.494543 -2.969055 -0.361600 0.239690 0.015970 -0.374400 
